<?xml version="1.0" encoding="UTF-8" standalone="no"?><!DOCTYPE svg PUBLIC "-//W3C//DTD SVG 1.1//EN" "http://www.w3.org/Graphics/SVG/1.1/DTD/svg11.dtd"><svg width="100%" height="100%" viewBox="0 0 1667 1667" version="1.1" xmlns="http://www.w3.org/2000/svg" xmlns:xlink="http://www.w3.org/1999/xlink" xml:space="preserve" xmlns:serif="http://www.serif.com/" style="fill-rule:evenodd;clip-rule:evenodd;stroke-linejoin:round;stroke-miterlimit:2;"><circle cx="833.333" cy="833.333" r="833.333"/><g><path d="M645.833,635.417c0,-68.99 -56.01,-125 -125,-125c-68.989,-0 -125,56.01 -125,125l0,395.833c0,68.989 56.011,125 125,125c68.99,0 125,-56.011 125,-125l0,-395.833Z" style="fill:#bec85d;"/><path d="M1270.83,635.417c0,-68.99 -56.01,-125 -125,-125c-68.989,-0 -125,56.01 -125,125l0,395.833c0,68.989 56.011,125 125,125c68.99,0 125,-56.011 125,-125l0,-395.833Z" style="fill:#b78bc3;"/><path d="M958.333,635.417c0,-68.99 -56.01,-125 -125,-125c-68.989,-0 -125,56.01 -125,125l0,175c0,68.989 56.011,125 125,125c68.99,-0 125,-56.011 125,-125l0,-175Z" style="fill:#6796e6;"/></g></svg>